<?xml version="1.0" encoding="utf-8"?>
<!-- Generator: Adobe Illustrator 23.1.0, SVG Export Plug-In . SVG Version: 6.00 Build 0)  -->
<svg version="1.1" id="Layer_1" xmlns="http://www.w3.org/2000/svg" xmlns:xlink="http://www.w3.org/1999/xlink" x="0px" y="0px"
	 viewBox="0 0 48.5 58.6" style="enable-background:new 0 0 48.5 58.6;" xml:space="preserve">
<style type="text/css">
	.st0{fill:#231F20;}
	.st1{fill:#F05A5A;}
	.st2{clip-path:url(#SVGID_2_);fill:#231F20;}
	.st3{fill:#AF4242;}
	.st4{fill:#F8B4B4;}
</style>
<g>
	
		<rect x="3.4" y="39.1" transform="matrix(0.7071 -0.7071 0.7071 0.7071 -29.9906 21.9014)" class="st3" width="16.2" height="16.2"/>
	<polygon class="st1" points="24.3,0 0,24.3 0,47.2 35.7,11.4 	"/>
	
		<rect x="29" y="39.1" transform="matrix(-0.7071 -0.7071 0.7071 -0.7071 29.9825 106.7242)" class="st3" width="16.2" height="16.2"/>
	<polygon class="st1" points="24.3,0 48.5,24.3 48.5,47.2 12.8,11.4 	"/>
	
		<rect x="16.2" y="3.4" transform="matrix(0.7071 -0.7071 0.7071 0.7071 -0.9828 20.5116)" class="st4" width="16.2" height="16.2"/>
	<path class="st0" d="M11.4,35.7L0,47.1c0,0,16.5-6.2,16.7-6.1C16.9,41,11.4,35.7,11.4,35.7z"/>
	<path class="st0" d="M37.1,35.7l11.4,11.4c0,0-16.5-6.2-16.7-6.1C31.6,41,37.1,35.7,37.1,35.7z"/>
</g>
</svg>
