<svg width="138" height="40" viewBox="0 0 138 40" fill="none" xmlns="http://www.w3.org/2000/svg">
<path d="M58.9377 8.8548C58.9377 12.092 56.5356 14.0862 52.6594 14.0862H49.3294V18.3285H46.5933V3.62338H52.6594C56.5356 3.62338 58.9377 5.59641 58.9377 8.8548ZM56.1804 8.8548C56.1804 7.00344 54.9395 5.93494 52.5375 5.93494H49.3347V11.7747H52.5375C54.9342 11.7747 56.1804 10.7009 56.1804 8.8548Z" fill="#2D3436"/>
<path d="M71.3253 18.3285L68.3135 14.0227C68.1226 14.0439 67.937 14.0439 67.7461 14.0439H64.4161V18.3285H61.6799V3.62338H67.7461C71.6223 3.62338 74.0244 5.59641 74.0244 8.8548C74.0244 11.0817 72.8896 12.7215 70.8852 13.4991L74.2736 18.3338H71.3253V18.3285ZM67.6188 5.93494H64.4161V11.7958H67.6188C70.0209 11.7958 71.2617 10.7009 71.2617 8.8548C71.2617 7.00873 70.0156 5.93494 67.6188 5.93494Z" fill="#2D3436"/>
<path d="M76.0234 10.9759C76.0234 6.62788 79.3906 3.4118 83.9614 3.4118C88.5323 3.4118 91.8994 6.60672 91.8994 10.9759C91.8994 15.3451 88.5323 18.5401 83.9614 18.5401C79.3906 18.5401 76.0234 15.324 76.0234 10.9759ZM89.1421 10.9759C89.1421 7.97144 86.9309 5.80799 83.9614 5.80799C80.992 5.80799 78.7808 7.97144 78.7808 10.9759C78.7808 13.9804 80.992 16.1439 83.9614 16.1439C86.9309 16.1439 89.1421 13.9804 89.1421 10.9759Z" fill="#2D3436"/>
<path d="M97.5467 5.91378V10.3888H104.668V12.7003H97.5467V18.3285H94.8105V3.62338H105.575V5.91378H97.5467Z" fill="#2D3436"/>
<path d="M108.226 3.62338H110.961V18.3285H108.226V3.62338Z" fill="#2D3436"/>
<path d="M117.935 5.93494H113.051V3.62338H125.56V5.93494H120.676V18.3285H117.94V5.93494H117.935Z" fill="#2D3436"/>
<path d="M126.234 16.7733L127.183 14.6522C128.36 15.5991 130.237 16.2708 132.045 16.2708C134.341 16.2708 135.312 15.4509 135.312 14.3613C135.312 11.1875 126.552 13.2663 126.552 7.80746C126.552 5.43243 128.445 3.41709 132.491 3.41709C134.262 3.41709 136.112 3.87729 137.396 4.71833L136.531 6.83947C135.206 6.06189 133.753 5.68633 132.464 5.68633C130.189 5.68633 129.261 6.5697 129.261 7.68051C129.261 10.812 138 8.77546 138 14.1709C138 16.5247 136.086 18.5401 132.04 18.5401C129.749 18.5401 127.453 17.826 126.234 16.7733Z" fill="#2D3436"/>
<path d="M50.0088 23.105H44.7009V22.137H56.3878V23.105H51.0853V36.8474H50.0088V23.105Z" fill="#00AEEF"/>
<path d="M74.5441 36.8421L71.0284 31.9281C70.5671 31.9915 70.1005 32.0339 69.5967 32.0339H65.3865V36.8474H64.3101V22.1423H69.5967C73.3033 22.1423 75.5357 23.9937 75.5357 27.0986C75.5357 29.4314 74.2736 31.05 72.0837 31.7006L75.769 36.8474H74.5441V36.8421ZM69.5967 31.087C72.7571 31.087 74.438 29.6165 74.438 27.0934C74.438 24.5491 72.7518 23.0997 69.5967 23.0997H65.3865V31.0817H69.5967V31.087Z" fill="#00AEEF"/>
<path d="M93.8613 32.7056H85.3082L83.4311 36.8421H82.2751L89.0572 22.137H90.1336L96.9156 36.8421H95.7596L93.8613 32.7056ZM93.4583 31.8011L89.5821 23.3113L85.7271 31.8011H93.4583Z" fill="#00AEEF"/>
<path d="M104.854 22.137H110.687C115.364 22.137 118.524 25.205 118.524 29.4896C118.524 33.7741 115.364 36.8421 110.687 36.8421H104.854V22.137ZM110.607 35.8741C114.775 35.8741 117.453 33.2293 117.453 29.4896C117.453 25.7498 114.78 23.105 110.607 23.105H105.93V35.8794H110.607V35.8741Z" fill="#00AEEF"/>
<path d="M137.693 35.8741V36.8421H127.522V22.137H137.38V23.105H128.599V28.9024H136.457V29.8492H128.599V35.8794H137.693V35.8741Z" fill="#00AEEF"/>
<path d="M19.5666 0C19.8476 0.0528961 20.134 0.105792 20.4627 0.163978C20.4627 2.24279 20.4627 4.34277 20.4627 6.50093C18.4053 6.50093 16.3532 6.50093 14.2003 6.50093C14.2003 6.79185 14.2003 7.0246 14.2003 7.25734C14.2003 10.0873 14.195 12.9119 14.2057 15.7419C14.2057 16.1386 14.1579 16.3713 13.6701 16.4824C10.5363 17.1859 8.06525 18.7993 6.55931 21.6768C6.5434 21.7085 6.49038 21.7191 6.39493 21.7773C6.39493 16.6993 6.39493 11.6583 6.39493 6.55382C6.09798 6.53795 5.85937 6.51679 5.62075 6.51679C3.98755 6.51679 0 2.14758 0 0C6.52219 0 13.0444 0 19.5666 0Z" fill="#00AEEF"/>
<path d="M6.51167 40C6.46925 39.9207 6.43213 39.8836 6.43213 39.8466C6.46394 35.6414 6.45334 31.4308 6.56469 27.2256C6.59651 26.0672 6.89345 24.8823 7.24873 23.7662C8.37288 20.2169 10.9658 18.2597 14.614 17.6779C16.3215 17.4028 18.0819 17.424 19.8159 17.3023C21.0567 17.2177 22.3081 17.2071 23.533 17.0114C26.4123 16.5406 28.1675 14.4406 28.0614 11.7323C27.9554 8.95001 26.0729 7.01402 23.1618 6.68606C22.7588 6.63846 22.3558 6.60672 21.8309 6.55382C21.8309 5.48532 21.8309 4.42211 21.8309 3.36419C21.8309 2.31685 21.8309 1.2748 21.8309 0.264481C21.9157 0.201006 21.9528 0.14811 21.9846 0.153399C24.164 0.333246 26.407 0.269771 28.5121 0.751125C32.5686 1.6821 35.6017 5.43243 35.9623 9.65882C36.0948 11.1981 36.1373 12.7903 35.8986 14.3084C35.0821 19.5081 31.1369 23.0204 25.6752 23.4911C23.6497 23.6657 21.6082 23.6763 19.5773 23.7821C18.7235 23.8297 17.8592 23.8773 17.0161 24.0307C15.6533 24.2846 14.789 25.1468 14.5451 26.4745C14.3489 27.543 14.2588 28.6379 14.2482 29.7223C14.2163 32.8908 9.04101 40 6.51167 40Z" fill="#2D3436"/>
<path d="M41.2166 0.1534H39.8967V40H41.2166V0.1534Z" fill="#DEE5E8"/>
</svg>
