<svg fill="none" height="500" viewBox="0 0 641 500" width="641" xmlns="http://www.w3.org/2000/svg" xmlns:xlink="http://www.w3.org/1999/xlink"><filter id="a" color-interpolation-filters="sRGB" filterUnits="userSpaceOnUse" height="333.406" width="245.972" x="318.679" y="3.00366"><feFlood flood-opacity="0" result="BackgroundImageFix"/><feColorMatrix in="SourceAlpha" type="matrix" values="0 0 0 0 0 0 0 0 0 0 0 0 0 0 0 0 0 0 127 0"/><feOffset dy="7"/><feGaussianBlur stdDeviation="30"/><feColorMatrix type="matrix" values="0 0 0 0 0.678431 0 0 0 0 0.788235 0 0 0 0 1 0 0 0 0.4 0"/><feBlend in2="BackgroundImageFix" mode="normal" result="effect1_dropShadow"/><feBlend in="SourceGraphic" in2="effect1_dropShadow" mode="normal" result="shape"/></filter><filter id="b" color-interpolation-filters="sRGB" filterUnits="userSpaceOnUse" height="498.453" width="498.453" x="62.9316" y=".634277"><feFlood flood-opacity="0" result="BackgroundImageFix"/><feColorMatrix in="SourceAlpha" type="matrix" values="0 0 0 0 0 0 0 0 0 0 0 0 0 0 0 0 0 0 127 0"/><feOffset dy="7"/><feGaussianBlur stdDeviation="30"/><feColorMatrix type="matrix" values="0 0 0 0 0.678431 0 0 0 0 0.788235 0 0 0 0 1 0 0 0 0.4 0"/><feBlend in2="BackgroundImageFix" mode="normal" result="effect1_dropShadow"/><feBlend in="SourceGraphic" in2="effect1_dropShadow" mode="normal" result="shape"/></filter><filter id="c" color-interpolation-filters="sRGB" filterUnits="userSpaceOnUse" height="440.5" width="441.378" x="91.9082" y="32.2451"><feFlood flood-opacity="0" result="BackgroundImageFix"/><feColorMatrix in="SourceAlpha" type="matrix" values="0 0 0 0 0 0 0 0 0 0 0 0 0 0 0 0 0 0 127 0"/><feOffset dy="7"/><feGaussianBlur stdDeviation="30"/><feColorMatrix type="matrix" values="0 0 0 0 0.678431 0 0 0 0 0.788235 0 0 0 0 1 0 0 0 0.4 0"/><feBlend in2="BackgroundImageFix" mode="normal" result="effect1_dropShadow"/><feBlend in="SourceGraphic" in2="effect1_dropShadow" mode="normal" result="shape"/></filter><filter id="d" color-interpolation-filters="sRGB" filterUnits="userSpaceOnUse" height="60.1959" width="60.1959" x="462.945" y="293.522"><feFlood flood-opacity="0" result="BackgroundImageFix"/><feColorMatrix in="SourceAlpha" type="matrix" values="0 0 0 0 0 0 0 0 0 0 0 0 0 0 0 0 0 0 127 0"/><feOffset dy="7"/><feGaussianBlur stdDeviation="10"/><feColorMatrix type="matrix" values="0 0 0 0 0.192157 0 0 0 0 0.47451 0 0 0 0 1 0 0 0 1 0"/><feBlend in2="BackgroundImageFix" mode="normal" result="effect1_dropShadow"/><feBlend in="SourceGraphic" in2="effect1_dropShadow" mode="normal" result="shape"/></filter><filter id="e" color-interpolation-filters="sRGB" filterUnits="userSpaceOnUse" height="60.1959" width="60.1959" x="120.493" y="323.377"><feFlood flood-opacity="0" result="BackgroundImageFix"/><feColorMatrix in="SourceAlpha" type="matrix" values="0 0 0 0 0 0 0 0 0 0 0 0 0 0 0 0 0 0 127 0"/><feOffset dy="7"/><feGaussianBlur stdDeviation="10"/><feColorMatrix type="matrix" values="0 0 0 0 0.192157 0 0 0 0 0.47451 0 0 0 0 1 0 0 0 1 0"/><feBlend in2="BackgroundImageFix" mode="normal" result="effect1_dropShadow"/><feBlend in="SourceGraphic" in2="effect1_dropShadow" mode="normal" result="shape"/></filter><filter id="f" color-interpolation-filters="sRGB" filterUnits="userSpaceOnUse" height="60.1959" width="60.1959" x="335.623" y="38"><feFlood flood-opacity="0" result="BackgroundImageFix"/><feColorMatrix in="SourceAlpha" type="matrix" values="0 0 0 0 0 0 0 0 0 0 0 0 0 0 0 0 0 0 127 0"/><feOffset dy="7"/><feGaussianBlur stdDeviation="10"/><feColorMatrix type="matrix" values="0 0 0 0 0.192157 0 0 0 0 0.47451 0 0 0 0 1 0 0 0 1 0"/><feBlend in2="BackgroundImageFix" mode="normal" result="effect1_dropShadow"/><feBlend in="SourceGraphic" in2="effect1_dropShadow" mode="normal" result="shape"/></filter><filter id="g" color-interpolation-filters="sRGB" filterUnits="userSpaceOnUse" height="61.074" width="61.074" x="134.542" y="99.4658"><feFlood flood-opacity="0" result="BackgroundImageFix"/><feColorMatrix in="SourceAlpha" type="matrix" values="0 0 0 0 0 0 0 0 0 0 0 0 0 0 0 0 0 0 127 0"/><feOffset dy="7"/><feGaussianBlur stdDeviation="10"/><feColorMatrix type="matrix" values="0 0 0 0 0.192157 0 0 0 0 0.47451 0 0 0 0 1 0 0 0 1 0"/><feBlend in2="BackgroundImageFix" mode="normal" result="effect1_dropShadow"/><feBlend in="SourceGraphic" in2="effect1_dropShadow" mode="normal" result="shape"/></filter><g filter="url(#a)" opacity=".3"><path d="m501.579 259.816c3.674-41.224-6.261-82.516-28.284-117.557-22.024-35.041-54.923-61.8998-93.662-76.4663l-.773 2.0568c38.289 14.3974 70.806 40.9445 92.574 75.5785 21.768 34.635 31.588 75.447 27.956 116.193z" fill="#c0d5ff"/></g><g filter="url(#b)" opacity=".3"><path d="m501.385 242.861c0 104.507-84.72 189.227-189.227 189.227s-189.226-84.72-189.226-189.227 84.719-189.2267 189.226-189.2267 189.227 84.7197 189.227 189.2267z" fill="#fff"/></g><g filter="url(#c)" opacity=".3"><path d="m473.286 245.495c0 88.504-71.943 160.25-160.689 160.25s-160.689-71.746-160.689-160.25 71.943-160.2499 160.689-160.2499 160.689 71.7459 160.689 160.2499z" fill="#fff"/></g><g fill="#3179ff" filter="url(#d)" opacity=".25"><path d="m503.141 316.62c0 5.577-4.521 10.098-10.098 10.098s-10.098-4.521-10.098-10.098 4.521-10.098 10.098-10.098 10.098 4.521 10.098 10.098z"/><path d="m503.141 316.62c0 5.577-4.521 10.098-10.098 10.098s-10.098-4.521-10.098-10.098 4.521-10.098 10.098-10.098 10.098 4.521 10.098 10.098z" fill-opacity=".3"/></g><g fill="#3179ff" filter="url(#e)" opacity=".1"><path d="m160.689 346.475c0 5.577-4.521 10.098-10.098 10.098s-10.098-4.521-10.098-10.098 4.521-10.098 10.098-10.098 10.098 4.521 10.098 10.098z"/><path d="m160.689 346.475c0 5.577-4.521 10.098-10.098 10.098s-10.098-4.521-10.098-10.098 4.521-10.098 10.098-10.098 10.098 4.521 10.098 10.098z" fill-opacity=".3"/></g><path d="m152.449 346.486c-.39-.224-.814-.41-1.239-.596-.248-.112-.46-.224-.672-.41-.39-.335-.319-.893.141-1.117.142-.074.283-.074.425-.074.531-.037 1.061.074 1.557.335.248.112.318.074.425-.186.07-.298.176-.559.247-.857.071-.186 0-.335-.177-.409-.318-.149-.672-.261-.991-.298-.46-.075-.46-.075-.46-.559 0-.67 0-.67-.637-.67-.106 0-.176 0-.283 0-.283 0-.354.075-.354.373v.409c0 .41 0 .41-.389.559-.92.335-1.486 1.005-1.557 2.047-.071.931.425 1.564 1.133 2.011.46.298.955.447 1.415.67.177.075.354.186.531.335.46.41.389 1.043-.177 1.304-.283.148-.602.148-.92.111-.496-.074-.956-.186-1.38-.447-.248-.149-.319-.111-.425.187-.071.26-.141.521-.212.744-.106.335-.071.41.248.596.389.186.813.298 1.238.372.354.075.354.075.354.447v.484c0 .224.106.335.318.335h.708c.177 0 .283-.111.283-.335 0-.223 0-.447 0-.67s.071-.335.283-.41c.496-.149.92-.409 1.239-.819.955-1.08.602-2.755-.672-3.462z" fill="#83aeff"/><g fill="#3179ff" filter="url(#f)" opacity=".3"><path d="m375.819 61.0979c0 5.577-4.521 10.098-10.098 10.098s-10.098-4.521-10.098-10.098c0-5.5769 4.521-10.0979 10.098-10.0979s10.098 4.521 10.098 10.0979z"/><path d="m375.819 61.0979c0 5.577-4.521 10.098-10.098 10.098s-10.098-4.521-10.098-10.098c0-5.5769 4.521-10.0979 10.098-10.0979s10.098 4.521 10.098 10.0979z" fill-opacity=".3"/></g><path d="m367.578 60.7055c-.389-.2048-.813-.3754-1.238-.5461-.248-.1024-.46-.2048-.672-.3754-.39-.3072-.319-.8191.141-1.0239.142-.0683.283-.0683.425-.0683.531-.0341 1.061.0683 1.557.3072.247.1024.318.0682.424-.1707.071-.273.177-.5119.248-.785.071-.1706 0-.3071-.177-.3754-.318-.1365-.672-.2389-.991-.273-.46-.0683-.46-.0683-.46-.512 0-.6143 0-.6143-.637-.6143-.106 0-.177 0-.283 0-.283 0-.354.0682-.354.3413v.3754c0 .3754 0 .3754-.389.5119-.92.3072-1.486.9216-1.557 1.8772-.071.8533.425 1.4335 1.132 1.8431.46.273.956.4095 1.416.6143.177.0683.354.1707.531.3072.46.3754.389.9556-.177 1.1945-.283.1366-.602.1366-.92.1024-.496-.0682-.956-.1706-1.38-.4095-.248-.1365-.319-.1024-.425.1706-.071.2389-.142.4779-.212.6826-.106.3072-.071.3755.247.5461.39.1707.814.2731 1.239.3413.354.0683.354.0683.354.4096v.4437c0 .2048.106.3072.318.3072h.708c.177 0 .283-.1024.283-.3072s0-.4096 0-.6144c0-.2047.071-.3071.283-.3754.496-.1365.92-.3754 1.239-.7509.955-.9897.601-2.5256-.673-3.1741z" fill="#3179ff"/><g fill="#3179ff" filter="url(#g)" opacity=".05"><path d="m175.616 123.003c0 5.819-4.717 10.537-10.537 10.537-5.819 0-10.537-4.718-10.537-10.537 0-5.82 4.718-10.537 10.537-10.537 5.82 0 10.537 4.717 10.537 10.537z"/><path d="m175.616 123.003c0 5.819-4.717 10.537-10.537 10.537-5.819 0-10.537-4.718-10.537-10.537 0-5.82 4.718-10.537 10.537-10.537 5.82 0 10.537 4.717 10.537 10.537z" fill-opacity=".3"/></g><path d="m166.498 122.574c-.389-.223-.814-.409-1.239-.595-.247-.112-.46-.224-.672-.41-.389-.335-.319-.893.142-1.117.141-.074.283-.074.424-.074.531-.038 1.062.074 1.557.335.248.111.319.074.425-.186.071-.298.177-.559.248-.857.07-.186 0-.335-.177-.409-.319-.149-.673-.261-.991-.298-.46-.075-.46-.075-.46-.559 0-.67 0-.67-.637-.67-.106 0-.177 0-.283 0-.283 0-.354.075-.354.372v.41c0 .41 0 .41-.389.559-.921.335-1.487 1.005-1.558 2.047-.07.931.425 1.564 1.133 2.011.46.298.955.447 1.415.67.177.075.354.186.531.335.46.41.389 1.043-.177 1.303-.283.149-.601.149-.92.112-.495-.074-.955-.186-1.38-.447-.248-.149-.318-.111-.425.186-.07.261-.141.522-.212.745-.106.335-.071.41.248.596.389.186.814.298 1.238.372.354.075.354.075.354.447v.484c0 .223.106.335.319.335h.707c.177 0 .284-.112.284-.335s0-.447 0-.67c0-.224.07-.335.283-.41.495-.149.92-.409 1.238-.819.956-1.08.602-2.755-.672-3.463z" fill="#0059ff" fill-opacity=".2"/><g fill="#1f6bf7"><path d="m84.596 193.966c0 .873-.249 1.559-.747 2.058s-1.1828.749-2.0542.749h-45.5661c-.747 0-1.1204.374-1.1204 1.122v17.589c0 .748.3734 1.122 1.1204 1.122h26.3312c.8715 0 1.5562.25 2.0542.749s.747 1.185.747 2.058v24.325c0 .873-.249 1.559-.747 2.058s-1.1827.748-2.0542.748h-26.3312c-.747 0-1.1204.375-1.1204 1.123v47.152c0 .874-.249 1.56-.747 2.059s-1.1828.748-2.0542.748h-29.50591c-.87148 0-1.55622-.249-2.054209-.748-.49799-.499-.746981-1.185-.746981-2.059v-125.365c0-.873.248991-1.559.746981-2.058.497989-.499 1.182729-.748 2.054209-.748h78.99361c.8714 0 1.5562.249 2.0542.748s.747 1.185.747 2.058z"/><path d="m174.825 299.497c-9.337 0-17.554-1.871-24.651-5.613-7.096-3.742-12.574-8.982-16.433-15.718-3.86-6.86-5.789-14.781-5.789-23.763v-44.533c0-8.981 1.929-16.84 5.789-23.576 3.859-6.736 9.337-11.913 16.433-15.53 7.097-3.742 15.314-5.613 24.651-5.613s17.554 1.871 24.65 5.613c7.221 3.617 12.761 8.794 16.621 15.53 3.859 6.736 5.789 14.595 5.789 23.576v44.533c0 8.982-1.992 16.903-5.976 23.763-3.859 6.736-9.337 11.976-16.434 15.718-7.096 3.742-15.313 5.613-24.65 5.613zm0-30.125c3.61 0 6.474-1.247 8.59-3.742 2.241-2.495 3.362-5.801 3.362-9.917v-46.778c0-4.117-1.121-7.422-3.362-9.917-2.116-2.495-4.98-3.742-8.59-3.742-3.486 0-6.349 1.247-8.59 3.742-2.117 2.495-3.175 5.8-3.175 9.917v46.778c0 4.116 1.058 7.422 3.175 9.917 2.241 2.495 5.104 3.742 8.59 3.742z"/><path d="m329.961 297.626c-1.618 0-2.676-.748-3.174-2.245l-15.874-47.153c-.124-.623-.56-.935-1.307-.935h-3.361c-.747 0-1.121.374-1.121 1.123v46.403c0 .874-.249 1.56-.747 2.059s-1.183.748-2.054.748h-29.506c-.872 0-1.556-.249-2.054-.748s-.747-1.185-.747-2.059v-125.365c0-.873.249-1.559.747-2.058s1.182-.748 2.054-.748h49.301c7.968 0 15.002 1.746 21.102 5.239 6.101 3.492 10.832 8.42 14.193 14.782 3.361 6.237 5.042 13.472 5.042 21.705 0 7.609-1.618 14.345-4.855 20.208-3.113 5.738-7.532 10.228-13.259 13.472-.498.374-.685.873-.561 1.497l19.235 50.894c.125.374.187.811.187 1.31 0 1.247-.809 1.871-2.428 1.871zm-23.716-100.853c-.747 0-1.121.374-1.121 1.122v21.518c0 .749.374 1.123 1.121 1.123h9.897c3.362 0 6.1-1.06 8.217-3.181 2.116-2.121 3.175-4.99 3.175-8.607 0-3.742-1.059-6.674-3.175-8.794-1.992-2.121-4.731-3.181-8.217-3.181z"/><path d="m495.182 193.966c0 .873-.249 1.559-.747 2.058s-1.183.749-2.054.749h-45.566c-.747 0-1.121.374-1.121 1.122v17.589c0 .748.374 1.122 1.121 1.122h26.331c.871 0 1.556.25 2.054.749s.747 1.185.747 2.058v24.325c0 .873-.249 1.559-.747 2.058s-1.183.748-2.054.748h-26.331c-.747 0-1.121.375-1.121 1.123v18.711c0 .749.374 1.123 1.121 1.123h45.566c.871 0 1.556.249 2.054.748s.747 1.186.747 2.059v24.511c0 .874-.249 1.56-.747 2.059s-1.183.748-2.054.748h-78.994c-.871 0-1.556-.249-2.054-.748s-.747-1.185-.747-2.059v-125.365c0-.873.249-1.559.747-2.058s1.183-.748 2.054-.748h78.994c.871 0 1.556.249 2.054.748s.747 1.185.747 2.058z"/><path d="m542.958 297.626c-.996 0-1.743-.312-2.241-.935-.498-.624-.498-1.435 0-2.433l29.319-61.373c.125-.499.125-.998 0-1.497l-29.319-61.372c-.249-.749-.373-1.185-.373-1.31 0-.624.249-1.123.747-1.497s1.12-.561 1.867-.561h31c1.743 0 2.864.748 3.362 2.245l12.698 30.499c.249.499.498.749.747.749.374 0 .623-.25.747-.749l12.886-30.499c.622-1.497 1.743-2.245 3.361-2.245h30.626c.996 0 1.743.311 2.242.935.498.624.498 1.435 0 2.433l-29.133 61.372c-.124.499-.124.998 0 1.497l29.133 61.373c.248.749.373 1.185.373 1.31 0 .624-.249 1.123-.747 1.497s-1.12.561-1.868.561h-30.626c-1.618 0-2.677-.686-3.175-2.058l-13.072-30.687c-.124-.499-.373-.748-.747-.748-.249 0-.498.249-.747.748l-12.885 30.5c-.623 1.497-1.743 2.245-3.362 2.245z"/></g><path d="m186.113 217.873c-.318 2.718-2.4 4.286-4.113 5.569-1.368 1.031-3.824 2.884-5.519 2.114-2.165-.989-1.496-4.244-2.318-4.234-.433 0-4.239 2.84-4.68 2.873.099-.652-.013-8.012-.013-8.012s9.548-7.351 13.42-4.855c2.082 1.332 3.526 3.929 3.223 6.545z" fill="#f9fafc"/><path clip-rule="evenodd" d="m170.073 216.088c-.525.008-.525.008-.525.008l.004.331c.003.212.007.515.011.88.009.732.02 1.714.028 2.717.007 1.004.012 2.027.009 2.841-.002.407-.006.76-.012 1.03-.007.286-.016.444-.022.49l-.096.669.657-.053c.125-.01.236-.059.292-.085.073-.034.152-.076.232-.123.16-.093.355-.22.567-.363.405-.273.902-.628 1.395-.981.027-.019.054-.039.081-.058.524-.374 1.039-.741 1.449-1.014.17-.114.315-.207.433-.276.003.012.006.025.01.038.037.144.07.322.109.541.005.029.01.059.015.089.034.191.072.405.117.625.207.994.617 2.345 1.927 2.98h.001c1.073.517 2.298.123 3.303-.407 1.025-.541 1.997-1.319 2.664-1.852l.015-.012.036-.029c1.659-1.32 3.876-3.084 4.215-6.159v-.001c.323-2.953-1.205-5.856-3.406-7.351-1.138-.778-2.623-.748-4.089-.382-1.483.369-3.063 1.111-4.494 1.918-1.437.81-2.748 1.701-3.699 2.388-.477.344-.864.637-1.132.846-.135.104-.239.186-.311.244-.036.028-.063.05-.082.065l-.021.018-.006.004-.002.002s0 0 .327.422zm.529.26.001.064c.003.212.007.516.011.882.009.732.02 1.716.027 2.722.008 1.005.013 2.033.009 2.854-.001.237-.002.458-.005.656.392-.264.876-.611 1.373-.966l.075-.053c.521-.372 1.05-.75 1.477-1.034.212-.142.408-.267.57-.357.08-.046.161-.088.236-.12.056-.024.177-.073.314-.075h.005v.539l-.007-.539h.002c.321-.003.547.18.68.376.118.175.186.387.232.568.049.19.088.407.127.622.005.031.01.062.016.092.034.192.068.388.11.59.2.963.526 1.831 1.347 2.23l-.223.487.224-.487s0 0-.001 0c.597.287 1.417.115 2.375-.391.932-.491 1.836-1.213 2.515-1.756l.001-.001c1.711-1.361 3.566-2.872 3.851-5.457l.522.06-.522-.061c.275-2.515-1.041-5.04-2.942-6.331l-.002-.001c-.769-.526-1.889-.574-3.259-.233-1.353.338-2.84 1.028-4.236 1.816-1.391.785-2.669 1.652-3.601 2.325-.465.336-.842.622-1.103.824-.077.059-.143.112-.199.155zm-.529-.26-.327-.422-.202.165.004.265zm4.725 5.896c0 .001-.003.002-.008.003.006-.002.008-.003.008-.003z" fill="#aecaff" fill-rule="evenodd"/><path d="m183.817 219.127c1.387.677 3.337.661 4.111-.357s1.291-2.131.362-4.515c-6.288-13.801-11.125-8.649-11.125-8.649s-5.591 4.802-5.939 7.45c0 0 .761 1.628 1.755 1.111 1.217-.635.507-1.337 1.888-2.032.374-.157.784-.194 1.177-.105.394.088.754.298 1.033.601.889 1.057 0 3.05.431 3.238.43.187.997-1.684 1.974-1.743 1.4-.086 1.651 3.684 4.333 5.001z" fill="#afcbff"/><path clip-rule="evenodd" d="m180.92 204.76c2.225.458 5.074 2.666 8.202 9.123l.006.014.006.014c.482 1.164.614 2.077.485 2.857-.13.784-.513 1.363-.918 1.864-.515.637-1.364.904-2.186.952-.835.048-1.747-.122-2.512-.473l-.001-.001c-1.496-.69-2.29-2.016-2.857-3.036-.049-.089-.097-.175-.142-.257-.229-.415-.411-.747-.602-.995-.227-.294-.354-.322-.434-.318v.001c-.081.004-.19.045-.338.174-.15.128-.295.307-.45.513-.031.042-.065.088-.099.135-.115.157-.243.331-.358.457-.077.084-.185.19-.322.263-.15.081-.375.14-.617.041-.264-.108-.37-.334-.411-.487-.038-.145-.039-.299-.034-.419.005-.144.027-.336.049-.522.012-.106.023-.209.032-.301.057-.61.023-1.101-.246-1.411-.203-.204-.463-.345-.747-.405-.282-.06-.576-.036-.844.066-.283.136-.43.258-.517.355-.09.099-.141.199-.211.351-.005.011-.011.024-.016.036-.066.144-.158.347-.317.544-.181.224-.428.419-.785.594-.814.399-1.493-.079-1.846-.441-.189-.193-.335-.398-.433-.551-.049-.077-.088-.144-.115-.192-.013-.024-.024-.044-.031-.058l-.01-.018-.002-.006-.001-.002h-.001c0-.001 0-.001.47-.23l-.47.229-.071-.142.022-.158c.105-.751.584-1.58 1.16-2.358.588-.794 1.332-1.604 2.054-2.325.723-.724 1.435-1.368 1.965-1.83.265-.232.485-.418.639-.547.078-.065.138-.115.18-.149l.048-.039c0-.001.001-.002.002-.002.014-.013.032-.03.055-.05.046-.041.112-.095.195-.157.168-.124.41-.281.723-.423.627-.287 1.534-.511 2.651-.28zm-2.945 1.7-.003.002-.011.009-.045.037c-.039.032-.098.08-.172.143-.15.125-.364.307-.623.532-.518.453-1.211 1.08-1.914 1.782-.704.704-1.407 1.473-1.953 2.21-.499.673-.825 1.266-.936 1.727.008.014.016.027.026.042.074.116.177.259.3.385.269.275.458.314.626.232.246-.12.363-.228.432-.313.074-.092.116-.183.191-.347l.006-.014c.076-.166.181-.388.381-.611.202-.224.475-.425.865-.609l.015-.007.017-.007c.466-.184.978-.227 1.469-.123s.94.349 1.289.706l.008.009.008.008c.587.657.569 1.549.516 2.152.135-.171.293-.353.472-.507.242-.208.565-.405.967-.428m8.263.847c-3.09-6.374-5.741-8.188-7.463-8.543-.857-.177-1.534-.005-1.998.207-.234.106-.413.223-.532.311-.059.044-.103.08-.13.104-.013.012-.023.02-.028.025l-.003.003-.018.018-.022.018" fill="#cadcff" fill-rule="evenodd"/><path d="m57.9536 322.769c3.0485-2.361 6.3477-3.679 9.8977-3.954l3.22 5.382s-2.9209 6.217-2.6174 7.72c.3036 1.503 5.3052 5.197 5.3052 5.197l-8.6.141z" fill="#0059ff"/><path d="m66.7344 318.054c15.5899-11.054 29.1439-35.019 41.8776-64.217 2.366 7.493 6.571 14.72 11.685 21.815-13.014 21.791-28.9585 39.166-46.8128 53.7z" fill="#aecaff"/><path d="m129.078 277.277 19.565 15.756c-2.182 9.095-3.336 19.713-1.204 35.202l11.794.239 4.09-44.062c-6.446-10.443-14.244-18.511-22.756-25.307-4.464 6.449-8.509 12.64-11.489 18.172z" fill="#aecaff"/><path d="m140.493 259.226 14.284 13.051 10.172-21.172s2.313 7.959 10.929 10.592 18.109-4.749 18.684-5.476c.575-.726 1.25-7.67 1.25-7.67s-11.968 6.874-16.809 3.613-9.235-20.749-9.235-20.749l-.08-.408c-14.781 5.856-24.513 15.262-29.195 28.219z" fill="#0059ff"/><path d="m169.47 216.079c-26.722 1.6-49.785 12.852-63.222 36.262 3.521 12.789 11.197 21.907 20.564 29.595 3.188-7.576 13.909-22.381 13.909-22.381l2.422-3.329 3.589 8.689 5.509 5.249v-24.057l17.137-15.348z" fill="#cadcff"/><path d="m145.762 337.255 2.395-8.781 7.012.152c-.12.532-.112 1.082.022 1.612.135.529.393 1.024.757 1.449 1.248 1.524 11.766 5.381 11.766 5.381z" fill="#0059ff"/><path d="m454.072 297.141c1.575 1.157 20.861.285 20.861.285l.109-10.688-5.739-1.29c-.963 4.67-16.753 10.577-15.231 11.693z" fill="#0059ff"/><path d="m494.463 305.964c1.575 1.075 20.869.266 20.869.266l.102-9.925-5.739-1.198c-.959 4.336-16.752 9.82-15.232 10.857z" fill="#0059ff"/><path d="m468.018 288.444.369-50.314 20.117-28.197 23.116 2.899 4.692 83.736-9.025.295-11.613-72.842-14.565 20.979-5.716 44.186z" fill="#aecaff"/><path d="m503.141 168.663c-.091.217-.788 1.55-.878 1.756z" fill="#fff"/><path clip-rule="evenodd" d="m503.205 169.799c.334-.267.711-.569.814-.669l-1.069-.467c.001 0 0 .001-.001.002l-.005.004c-.005.004-.01.009-.018.016-.015.013-.034.029-.057.049-.047.04-.107.089-.178.146-.14.115-.315.255-.491.396-.028.023-.057.045-.085.068-.314.251-.639.511-.73.597l1.056.478c.061-.057.379-.311.741-.601z" fill="#000" fill-rule="evenodd"/><path d="m476.04 197.75c-.813 1.682 2.583 3.049 8.519 4.28 1.211-1.689 2.657-3.484 2.776-4.39z" fill="#afcbff"/><path clip-rule="evenodd" d="m487.335 196.762-11.137.136-.131.337c-.253.656-.17 1.299.185 1.872.335.542.902 1.009 1.604 1.426 1.411.835 3.577 1.583 6.266 2.28l.369.095.198-.344c.199-.348.41-.706.621-1.065.354-.603.708-1.206 1.009-1.756.242-.443.459-.871.625-1.259.161-.379.29-.761.326-1.103zm-1.275 1.117c-.02.048-.04.099-.063.152-.144.34-.342.731-.577 1.16-.294.539-.63 1.11-.976 1.699-.147.25-.295.502-.443.756-2.496-.663-4.417-1.351-5.638-2.075-.644-.381-1.042-.743-1.243-1.068-.11-.178-.162-.344-.161-.513z" fill="#cadcff" fill-rule="evenodd"/><path d="m488.214 206.421.366 3.456c5.584 3.56 13.859 4.039 23.247 3.23l.973-4.815z" fill="#f9fafc"/><path clip-rule="evenodd" d="m487.336 205.542.462 4.655.207.141c5.871 3.998 14.494 4.497 24.09 3.614l.404-.038 1.179-6.23zm25.064 3.111-.808 4.27c-9.286.819-17.321.261-22.772-3.329l-.286-2.881z" fill="#cadcff" fill-rule="evenodd"/><path d="m490.617 180.782c.659-1.386 2.78-5.702 7.487-8.024 3.155-1.556 6.004-1.493 8.412-1.441 1.835.041 12.384.275 15.793 6.892.887 1.72 1.048 3.399 1.026 5.456-.066 6.343-8.41 24.271-8.41 24.271-12.81 1.174-31.875-2.222-31.078-4.32l3.804-6.431s-.463-9.178 2.966-16.403z" fill="#f9fafc"/><path clip-rule="evenodd" d="m506.05 171.317c-2.394-.052-5.338-.117-8.593 1.488-4.857 2.395-7.034 6.837-7.697 8.232-1.744 3.674-2.491 7.823-2.805 11.033-.158 1.609-.207 2.991-.218 3.972-.005.491 0 .881.006 1.15.002.106.005.192.007.259l-3.729 6.303-.017.043c-.129.341-.029.662.14.901.158.224.396.411.655.572.525.325 1.301.639 2.246.939 1.903.603 4.63 1.19 7.762 1.672 6.265.964 14.243 1.522 20.675.932l.304-.027.128-.277-.48-.224c.48.224.48.224.48.224l.025-.052c.016-.035.039-.085.07-.152.061-.133.151-.328.264-.579.228-.502.554-1.225.945-2.113.781-1.775 1.824-4.208 2.869-6.84 1.045-2.631 2.095-5.467 2.889-8.046.788-2.563 1.342-4.925 1.359-6.587m-9.253 23.642c-6.266.535-14.001-.011-20.114-.951-3.106-.478-5.773-1.055-7.603-1.635-.921-.292-1.597-.575-2.008-.83-.17-.105-.268-.189-.32-.247l3.786-6.399-.008-.16v-.001-.004l-.001-.018c0-.016-.001-.041-.003-.074-.002-.066-.005-.165-.008-.295-.006-.258-.011-.637-.006-1.115.01-.956.059-2.306.213-3.879.308-3.153 1.037-7.164 2.707-10.68.648-1.363 2.695-5.51 7.207-7.735 3.014-1.486 5.733-1.432 8.128-1.379m8.03 35.402c.058-.125.134-.292.227-.496.226-.499.55-1.218.939-2.102.778-1.767 1.815-4.188 2.854-6.804 1.04-2.618 2.079-5.425 2.861-7.966.787-2.557 1.296-4.791 1.312-6.285.022-2.016-.139-3.583-.962-5.179-1.593-3.092-4.886-4.741-8.115-5.614-3.212-.869-6.24-.937-7.146-.956m-.002-1.063h.025zm.025 0 .001.001zm.001.001c.922.02 4.057.089 7.398.993zm7.398.993c3.327.899 6.981 2.659 8.781 6.151zm8.781 6.151c.942 1.826 1.102 3.601 1.08 5.678z" fill="#cadcff" fill-rule="evenodd"/><path clip-rule="evenodd" d="m512.8 183.858-1.034-.268-4.098 16.351-19.303-2.819-.151 1.073 20.251 2.957z" fill="#cadcff" fill-rule="evenodd"/><path clip-rule="evenodd" d="m494.396 187.245c.705-2.831 1.408-5.657 1.72-6.874l-.948-.293c-.314 1.222-1.018 4.052-1.721 6.879l-.001.004c-.705 2.83-1.408 5.657-1.72 6.874l.948.292c.314-1.221 1.018-4.051 1.721-6.878z" fill="#cadcff" fill-rule="evenodd"/><path d="m492.778 161.529c-1.256 2.695 4.634 9.02 6.626 9.31s2.863-.601 2.863-.601l-.047 4.359c-.177 2.042 9.556 1.3 8.78-2.939 0 0-1.608-5.06-3.482-6.7.487-2.288-12.691-7.822-14.74-3.429z" fill="#afcbff"/><path clip-rule="evenodd" d="m506.214 164.177c.291.348.294.52.287.551l-.063.313.231.212c.401.369.814.96 1.214 1.675.396.708.759 1.505 1.069 2.259.31.752.563 1.453.738 1.966.088.256.156.465.203.609.023.072.04.128.052.166l.007.022c.134.839-.2 1.517-.875 2.079-.701.584-1.737 1.003-2.837 1.233-1.096.229-2.192.258-2.979.115-.399-.073-.673-.182-.829-.292-.135-.096-.128-.146-.126-.157 0-.001 0-.001 0-.002l.002-.02.061-5.947-.924.994c-.002.002-.006.006-.012.011-.015.014-.042.037-.083.067-.081.06-.215.145-.404.225-.374.157-.987.301-1.879.165-.145-.022-.38-.115-.704-.316-.315-.195-.676-.469-1.063-.808-.775-.678-1.625-1.59-2.38-2.582-.756-.993-1.399-2.045-1.776-2.998-.387-.979-.447-1.731-.231-2.217.38-.859 1.311-1.324 2.743-1.387 1.413-.062 3.151.284 4.847.857 1.691.571 3.296 1.353 4.437 2.126.573.388 1.005.758 1.274 1.081zm4.255 7.641c.507-.164.507-.164.507-.164l-.002-.005-.003-.012-.015-.047c-.012-.04-.031-.099-.055-.175-.048-.15-.119-.367-.209-.631-.181-.528-.442-1.251-.763-2.03-.319-.777-.702-1.618-1.127-2.378-.369-.662-.786-1.29-1.239-1.761-.031-.435-.276-.837-.545-1.159-.36-.432-.883-.867-1.497-1.283-1.233-.835-2.926-1.655-4.689-2.25-1.759-.595-3.633-.98-5.221-.911-1.57.069-3.03.599-3.664 2.028-.406.916-.204 2.04.214 3.095.428 1.081 1.133 2.221 1.925 3.263.795 1.044 1.694 2.011 2.529 2.741.417.365.825.677 1.202.911.368.228.745.407 1.094.461 1.039.159 1.824.009 2.371-.209l-.036 3.554c-.033.513.243.895.586 1.138.334.237.777.383 1.246.468.946.172 2.178.13 3.372-.12 1.192-.249 2.41-.719 3.293-1.454.901-.752 1.484-1.815 1.249-3.167l-.006-.034-.01-.033z" fill="#cadcff" fill-rule="evenodd"/><path d="m491.81 162.898c1.031-.574 2.448-5.636 6.771-6.44 4.358-.813 8.593 4.203 8.917 7.451.2 2.001-.514 2.173-1.599 2.109-.813-.048-2.42-2.425-2.42-2.425s-.78-1.616-2.082-1.904c-1.303-.288-.632 1.149-1.311 1.541-2.405 1.381-9.191.905-8.276-.332z" fill="#0059ff"/><path clip-rule="evenodd" d="m490.41 162.058-.14.178c-.158.201-.3.482-.3.826 0 .349.147.634.318.836.302.356.749.546 1.072.656.708.241 1.693.377 2.703.428 1.029.052 2.174.02 3.236-.115 1.039-.133 2.103-.378 2.902-.81l.002-.001c.527-.287.73-.745.819-1.039.024-.079.043-.157.058-.227.222.119.448.312.661.558.143.167.256.329.333.449.037.06.065.107.082.137.009.015.014.025.017.031l.002.003.033.064.044.061.9-.574s-.802-1.566-2.143-1.845c-.801-.167-.877.263-.957.717-.054.306-.11.624-.392.777-1.811.98-6.038.995-7.805.462-.115-.034-.221-.072-.314-.111-.428-.181-.605-.409-.397-.673.315-.166.665-.715 1.119-1.426 1.073-1.683 2.722-4.269 5.848-4.817 4.486-.788 8.844 4.074 9.177 7.222.206 1.941-.529 2.107-1.645 2.045-.837-.046-2.491-2.351-2.491-2.351-.9.574-.9.574-.9.574l.002.003.005.007.016.023c.014.019.034.046.059.08.051.068.123.164.212.279.177.228.425.537.705.851.275.309.602.648.938.922.168.137.36.276.567.388.196.106.482.229.823.248.515.028 1.465.067 2.145-.565.684-.636.751-1.608.646-2.605m0 0c-.201-1.892-1.549-4.108-3.366-5.731-1.823-1.628-4.371-2.876-7.091-2.398m3.255 6.749c.004-.008.006-.013.005-.013 0-.001-.002.004-.005.013zm-10.758-.286.166-.088zm.166-.088c.014-.013.054-.053.119-.135.116-.146.254-.349.431-.623.062-.096.128-.199.197-.308.31-.487.695-1.09 1.149-1.691 1.116-1.476 2.806-3.156 5.441-3.618" fill="#afcbff" fill-rule="evenodd"/><path d="m494.022 316.227c-.389-.204-.814-.375-1.238-.546-.248-.102-.46-.204-.673-.375-.389-.307-.318-.819.142-1.024.141-.068.283-.068.425-.068.53-.034 1.061.068 1.557.307.247.102.318.068.424-.171.071-.273.177-.512.248-.785.071-.17 0-.307-.177-.375-.318-.137-.672-.239-.991-.273-.46-.068-.46-.068-.46-.512 0-.614 0-.614-.637-.614-.106 0-.177 0-.283 0-.283 0-.354.068-.354.341v.375c0 .376 0 .376-.389.512-.92.307-1.486.922-1.557 1.877-.071.854.425 1.434 1.132 1.843.46.273.956.41 1.416.615.177.068.354.17.531.307.46.375.389.956-.177 1.195-.283.136-.602.136-.92.102-.496-.068-.956-.171-1.381-.41-.247-.136-.318-.102-.424.171-.071.239-.142.478-.212.683-.107.307-.071.375.247.546.389.17.814.273 1.239.341.354.068.354.068.354.41v.443c0 .205.106.307.318.307h.708c.177 0 .283-.102.283-.307s0-.409 0-.614.071-.307.283-.376c.496-.136.92-.375 1.239-.75.955-.99.601-2.526-.673-3.175z" fill="#508cff"/></svg>